<?xml version="1.0" encoding="UTF-8" standalone="no"?>
<!DOCTYPE svg PUBLIC "-//W3C//DTD SVG 20010904//EN" "http://www.w3.org/TR/2001/REC-SVG-20010904/DTD/svg10.dtd">
<svg version="1.0" xmlns="http://www.w3.org/2000/svg" width="205.000000pt" height="204.000000pt" viewBox="0 0 205.000000 204.000000" preserveAspectRatio="xMidYMid meet">
<metadata>
Created by potrace 1.15, written by Peter Selinger 2001-2017
</metadata>
<g transform="translate(0.000000,204.000000) scale(0.100000,-0.100000)" fill="#000000" stroke="none">
<path d="M910 1988 c-62 -63 -103 -129 -98 -160 2 -18 12 -24 43 -29 109 -19 292 -104 396 -186 134 -104 259 -292 305 -461 10 -34 19 -61 20 -59 12 11 14 120 4 198 -31 257 -140 458 -331 605 -59 45 -245 144 -272 144 -9 0 -39 -24 -67 -52z"/>
<path d="M515 1783 c-57 -9 -150 -35 -217 -61 l-68 -26 0 -102 c0 -109 17 -174 46 -174 9 0 29 9 44 20 122 87 337 150 510 150 156 0 302 -37 464 -116 49 -24 91 -42 93 -40 3 2 -30 38 -72 80 -87 84 -182 152 -270 191 -33 14 -69 30 -80 35 -69 31 -139 42 -275 45 -80 2 -158 1 -175 -2z"/>
<path d="M1549 1780 c-26 -4 -56 -13 -68 -19 -22 -12 -28 -36 -11 -46 18 -11 77 -137 103 -220 57 -184 55 -366 -7 -545 -23 -64 -74 -169 -98 -197 -5 -7 -8 -17 -6 -24 6 -19 147 121 199 198 107 158 146 282 148 470 2 124 -8 190 -49 317 -19 57 -24 64 -52 70 -38 8 -99 6 -159 -4z"/>
<path d="M653 1545 c-220 -40 -393 -145 -520 -315 -47 -63 -133 -229 -133 -257 0 -19 82 -105 130 -137 13 -9 37 -16 52 -16 24 0 27 5 38 58 7 31 30 99 52 151 99 234 298 414 548 497 30 10 59 22 64 26 15 13 -151 8 -231 -7z"/>
<path d="M439 1248 c-136 -163 -203 -323 -215 -519 -9 -138 21 -285 89 -431 l22 -47 55 0 c69 -1 167 22 188 43 14 14 14 18 -5 38 -30 32 -86 133 -117 211 -38 94 -57 198 -57 312 -1 147 22 242 108 443 13 31 -20 6 -68 -50z"/>
<path d="M1810 1181 c-66 -223 -220 -420 -432 -554 -54 -34 -205 -95 -278 -112 -84 -20 -109 -34 -65 -36 194 -10 309 1 441 42 226 70 407 226 534 461 27 51 39 84 35 97 -7 24 -98 120 -142 149 -55 38 -69 31 -93 -47z"/>
<path d="M430 843 c1 -106 40 -271 88 -373 104 -218 303 -385 544 -457 l53 -15 39 43 c57 64 96 129 96 160 0 25 -4 28 -52 34 -168 21 -373 117 -501 234 -87 80 -221 286 -242 374 -11 42 -25 42 -25 0z"/>
<path d="M590 618 c0 -18 165 -174 230 -217 172 -114 323 -161 519 -161 156 0 400 60 402 99 0 9 2 34 5 56 7 64 -6 162 -25 186 l-18 22 -66 -36 c-160 -86 -314 -122 -497 -114 -167 6 -268 33 -426 113 -68 34 -124 58 -124 52z"/>
</g>
</svg>